<svg width="20" height="20" viewBox="0 0 20 20" xmlns="http://www.w3.org/2000/svg">
  <path
    d="M18.7873 9.46184L10.534 1.21897C10.393 1.07873 10.2022 1 10.0032 1C9.80429 1 9.61344 1.07873 9.47247 1.21897L1.21912 9.45996C1.11339 9.56694 1.04183 9.70287 1.01354 9.85053C0.985254 9.99818 1.0015 10.1509 1.06022 10.2893C1.06672 10.3062 1.07458 10.3225 1.08373 10.3382C1.11318 10.3867 1.15454 10.4269 1.2039 10.455C1.25326 10.4831 1.30899 10.4982 1.3658 10.4988H2.83444V18.2485C2.83815 18.4507 2.92181 18.6433 3.06715 18.7841C3.21249 18.9248 3.4077 19.0025 3.61013 18.9999H16.3587C16.4569 19.0003 16.5541 18.9811 16.6447 18.9433C16.7352 18.9054 16.8173 18.8498 16.8859 18.7798C16.9546 18.7097 17.0084 18.6266 17.0443 18.5353C17.0802 18.4441 17.0974 18.3466 17.0949 18.2485V10.4988H18.6162C18.6749 10.499 18.7327 10.4845 18.7843 10.4566C18.8359 10.4287 18.8796 10.3883 18.9115 10.3391C18.9865 10.1986 19.0149 10.0379 18.9926 9.88025C18.9703 9.72258 18.8984 9.57606 18.7873 9.46184ZM12.5724 17.8569H7.36918V13.2602C7.35017 12.9071 7.40336 12.5539 7.52552 12.2221C7.64768 11.8902 7.83623 11.5868 8.07968 11.3301C8.32314 11.0735 8.61638 10.8691 8.94151 10.7294C9.26665 10.5898 9.61687 10.5177 9.9708 10.5177C10.3247 10.5177 10.6749 10.5898 11.0001 10.7294C11.3252 10.8691 11.6185 11.0735 11.8619 11.3301C12.1054 11.5868 12.2939 11.8902 12.4161 12.2221C12.5382 12.5539 12.5914 12.9071 12.5724 13.2602V17.8569Z" />
</svg>