<svg viewBox="0 0 512 512" xmlns="http://www.w3.org/2000/svg" xmlns:xlink="http://www.w3.org/1999/xlink" width="512.000000" height="512.000000" fill="none" clip-path="url(#clipPath_0)" customFrame="url(#clipPath_0)">
	<defs>
		<clipPath id="clipPath_0">
			<rect width="512.000000" height="512.000000" x="0.000000" y="0.000000" rx="2.000000" fill="rgb(255,255,255)" />
		</clipPath>
		<linearGradient id="paint_linear_0" x1="0" x2="189.279037" y1="395.916992" y2="395.916992" gradientUnits="userSpaceOnUse">
			<stop stop-color="rgb(19,123,243)" offset="0" stop-opacity="1" />
			<stop stop-color="rgb(0,227,254)" offset="1" stop-opacity="1" />
		</linearGradient>
	</defs>
	<rect id="qqq 1" width="512.000000" height="512.000000" x="0.000000" y="0.000000" rx="2.000000" />
	<path id="矢量 1" d="M24.9596 0.457617L28.9206 -2.21282e-06L30.9425 -1.60187e-06C33.9521 -1.60187e-06 38.5793 0.518744 41.3445 1.70667C43.3536 2.56974 47.0622 3.85024 49.7088 5.07523C53.6656 6.90675 56.3581 8.61388 56.3581 8.61389C56.3581 8.61389 191.463 95.7687 258.64 139.958C262.289 138.263 271.536 131.521 275.641 128.815L312.733 104.491L424.488 31.2859L447.449 16.1645C453.746 11.9876 463.037 5.20189 469.872 2.56C473.544 1.14002 477.431 0.113752 482.498 -2.08616e-06C487.542 -0.113224 492.602 1.60689 496.338 3.05896C501.797 5.18106 506.42 9.92905 508.926 15.3393C511.253 20.3454 512 26.0689 512 31.5892L512 278.608C507.066 276.734 496.706 268.538 491.512 265.399C466.918 250.543 442.996 232.826 418.469 217.871C411.992 221.443 405.751 226.256 398.827 230.121C405.316 234.83 414.103 240.04 421.004 244.542L469.872 276.239C512.041 303.491 510.828 300.091 510.844 351.321L510.857 405.412L510.857 456.397C510.857 466.125 511.06 476.015 510.513 485.551C509.85 497.144 506.325 505.933 495.377 510.562C491.36 512.25 486.415 511.846 482.068 511.566L480.207 511.445C477.149 511.248 474.15 510.467 471.266 509.433C469.194 508.69 467.061 507.926 465.311 506.88C455.237 500.868 445.225 494.908 435.37 488.525L382.505 454.383L249.536 368.277L88.9699 264.51L43.7482 235.3C39.6234 232.676 35.0831 229.958 31.1729 227.244C21.5063 220.535 9.46975 215.489 3.64256 204.666C2.79442 203.091 1.74961 201.604 1.18132 199.907C1.08962 199.634 0.976762 199.285 0.828485 198.827C0.2785 196.758 0 194.627 0 192.487L0 33.952C0 28.4411 1.11654 22.9874 3.28222 17.92L5.58338 13.9947C7.36986 10.9474 9.68804 8.24485 12.428 6.01537L13.1264 5.44704C14.7246 4.14666 16.4908 3.06775 18.3773 2.23947C20.4702 1.32055 22.6889 0.719952 24.9596 0.457617Z" fill="rgb(19,123,243)" fill-rule="nonzero" />
	<path id="矢量 2" d="M1.40685 297.998C1.63141 297.014 1.87225 296.046 2.25266 295.139C7.75962 281.996 23.4577 276.599 35.6808 283.33C43.2143 287.479 50.4668 292.764 57.7707 297.466L103.362 326.706L150.734 357.152C157.388 361.362 164.06 365.402 170.624 369.789C178.098 374.784 184.574 377.87 187.797 387.227C190.071 393.723 189.717 400.887 186.812 407.112C182.75 415.639 169.565 422.279 161.823 427.298L121.458 453.12L60.6956 492.109C51.8752 497.728 43.554 503.748 34.2883 508.664C26.9497 512.555 21.1689 512.179 13.8082 508.344C8.37924 505.472 3.09337 500.032 1.51377 493.764C0.814501 490.819 0 487.769 0 484.741L0 307.383C0 304.224 0.704263 301.077 1.40685 297.998Z" fill="url(#paint_linear_0)" fill-rule="nonzero" />
</svg>
